<svg xmlns="http://www.w3.org/2000/svg" width="58.036" height="31.739" viewBox="0 0 58.036 31.739"><defs><style>.a{fill:#fff;opacity:0.5;}</style></defs><path class="a" d="M194.905,32.2a7.929,7.929,0,0,1-2.841,2.791,12.124,12.124,0,0,1-8.457,1.652,15.428,15.428,0,0,1-4.526-1.288,11.183,11.183,0,0,1-1.437-.826,4.543,4.543,0,0,0,.363-.429,5.2,5.2,0,0,1-.479.363c-.595.429-1.206.859-1.833,1.255l-.231.132a9.713,9.713,0,0,1-1.437.859,12.967,12.967,0,0,1-2.445.842,13.462,13.462,0,0,1-2.692.429,8.7,8.7,0,0,1-2.263-.215A8.077,8.077,0,0,1,163.6,36.76a5.88,5.88,0,0,1-1.52-1.255,5.352,5.352,0,0,0-.842-1.09c.1.2.2.4.314.595a4.327,4.327,0,0,0,.694.942,10.72,10.72,0,0,1-2.23,1.189,11.3,11.3,0,0,1-5.4,1.057,12.107,12.107,0,0,1-5.418-1.734,6.227,6.227,0,0,1-1.437-1.156h0a6.838,6.838,0,0,1-1.222-1.652,7,7,0,0,0,.76,1.487,17.049,17.049,0,0,1-2.032.776,7.483,7.483,0,0,1-3.816.215,5.5,5.5,0,0,1-4.162-5.12,6.062,6.062,0,0,1,3.3-5.633,6.607,6.607,0,0,1,3.849-.429l.545.132v.76a6.377,6.377,0,0,0,.1.809,8.061,8.061,0,0,0,.38,1.057,6.426,6.426,0,0,1,.264-2.957,2.6,2.6,0,0,1,.2-.5,5.367,5.367,0,0,1,.3-.71,8.936,8.936,0,0,1,4.1-3.551,8.259,8.259,0,0,1,5.6-.908,6.246,6.246,0,0,1,.991.281,3.171,3.171,0,0,0,.479,2.379,3.964,3.964,0,0,1,.264-3.105,5.269,5.269,0,0,1,1.189-1.553,1.653,1.653,0,0,1,.38-.3h0l.3-.149h0a7.994,7.994,0,0,1,1.767-.529,4.955,4.955,0,0,1,1.3-.1h.38a2.742,2.742,0,0,0-.975-.165,14.006,14.006,0,0,0-1.437.1,6.426,6.426,0,0,0-1.222.347,5.649,5.649,0,0,1-.644-2.428,6.243,6.243,0,0,1,.479-3.072,7.813,7.813,0,0,1,1.817-2.445,7.037,7.037,0,0,1,5.55-1.833,5.632,5.632,0,0,1,4.344,2.725,9.663,9.663,0,0,0-1.52.677,5.452,5.452,0,0,0-.875.76,6.145,6.145,0,0,1,4.229-1.321,6.954,6.954,0,0,1,4.443,1.3,9.316,9.316,0,0,1,3.419,4.2,6.607,6.607,0,0,1,.347,1.553,8.507,8.507,0,0,1,.116,1.652,3.885,3.885,0,0,1,0,.429,7.683,7.683,0,0,0,.116-1.371h.132a9.547,9.547,0,0,1,2.742,0,8.259,8.259,0,0,1,4.658,2.511,8.689,8.689,0,0,1,1.272,2.263,4.741,4.741,0,0,1,0,2.99,2.972,2.972,0,0,1-.1.363h0a7.632,7.632,0,0,0-1.355.3.76.76,0,0,0-.462.264h.083a2.345,2.345,0,0,1,1.288-.281,5.169,5.169,0,0,1,.875,0h0a7.383,7.383,0,0,1,1.652.314,4.955,4.955,0,0,1,2.99,2.659,4.46,4.46,0,0,1-.033,3.7Z" transform="translate(-137.287 -6.475)"/></svg>