<svg xmlns="http://www.w3.org/2000/svg" width="93.761" height="45.869" viewBox="0 0 93.761 45.869"><defs><style>.a{fill:#fff;}</style></defs><path class="a" d="M88.382,26.872a9.6,9.6,0,0,1-4.113,1.156c-.826.1-1.652.149-2.478.182h-1.9a13.908,13.908,0,0,0,2.345.4,3.913,3.913,0,0,1-.149.595,9.911,9.911,0,0,1-1.652,2.758A14.519,14.519,0,0,1,75,36.238a12.619,12.619,0,0,1-6.789,1.008A7.449,7.449,0,0,1,66.76,36.9a8.259,8.259,0,0,0,.545-3.023h0a7.7,7.7,0,0,1-1.321,3.3,12.108,12.108,0,0,1-1.421,1.9,17.1,17.1,0,0,1-3.3,2.973A23.405,23.405,0,0,1,50.474,45.9a18.07,18.07,0,0,1-9.911-1.652A12.421,12.421,0,0,1,36.9,41.408a6.855,6.855,0,0,1-1.387-1.652,10.835,10.835,0,0,1-1.14-4.03,8.655,8.655,0,0,0,1.173,4.823,18.582,18.582,0,0,1-14.09,1.387,8.457,8.457,0,0,1-6.045-5.1,6.855,6.855,0,0,1-.413-2.081,4.129,4.129,0,0,1,.413-3.023A5.616,5.616,0,0,1,18.265,29.3a3.8,3.8,0,0,0-2.858,1.751,4.592,4.592,0,0,0-.611.975,8.886,8.886,0,0,1-1.421-1.189,8.556,8.556,0,0,1-2.428-2.99,15.543,15.543,0,0,1-.991-2.511,5.946,5.946,0,0,1-.215-.661,13.825,13.825,0,0,0,.958,4.46,17.79,17.79,0,0,1-6.062,0A6.409,6.409,0,0,1-.83,22.71a7.862,7.862,0,0,1,7.169-7.1,17.79,17.79,0,0,1,5.533.38,7.335,7.335,0,0,1,.859.248,10.885,10.885,0,0,0-1.421,1.833c-.116.281-.231.562-.33.842a9.068,9.068,0,0,1,3.006-3.072,13.214,13.214,0,0,1,8.259-3.089,15.031,15.031,0,0,1,5.8,1.354,6.458,6.458,0,0,0,.149,2.461A6.458,6.458,0,0,1,29.2,12.585c.132-.3.281-.578.429-.842a14.569,14.569,0,0,1,6.244-5.913,11.777,11.777,0,0,1,9.052-.38,12.652,12.652,0,0,1,1.652.628h0l.264.116h0l.4.165c.529.264,1.074.512,1.652.826A6.458,6.458,0,0,0,47.336,5.9l-.248-.149c.264-.512.562-.991.859-1.454A9.1,9.1,0,0,1,53.4.51,10.588,10.588,0,0,1,56.85.18a7.532,7.532,0,0,1,2.99,1.156A6.739,6.739,0,0,1,62.9,5.449a3.733,3.733,0,0,1,.248.644,8.259,8.259,0,0,1,.545,1.652.248.248,0,0,0,.116-.2V6.671a13.627,13.627,0,0,1,1.652-.71,12.058,12.058,0,0,1,7.516,0,9.564,9.564,0,0,1,5.682,4.129,8.259,8.259,0,0,1,.975,2.775,5.9,5.9,0,0,0-3.188,1.982A7.648,7.648,0,0,1,81.758,13.2a16.154,16.154,0,0,1,4.014.413c3.056.694,6,2.015,6.954,5.269S91.124,25.3,88.382,26.872Z" transform="translate(0.83 -0.155)"/></svg>