<svg xmlns="http://www.w3.org/2000/svg" width="57.998" height="31.682" viewBox="0 0 57.998 31.682"><defs><style>.a{fill:#fff;opacity:0.5;}</style></defs><path class="a" d="M65.7,109.446a7.813,7.813,0,0,1-2.775,2.791,12.223,12.223,0,0,1-8.457,1.652,15.989,15.989,0,0,1-4.526-1.3,9.529,9.529,0,0,1-1.437-.826,4.542,4.542,0,0,0,.363-.429l-.462.363c-.611.429-1.222.859-1.85,1.255l-.231.132a8.937,8.937,0,0,1-1.437.859,12.208,12.208,0,0,1-2.445.842,13.462,13.462,0,0,1-2.692.429A8.705,8.705,0,0,1,37.485,115a7.8,7.8,0,0,1-3.023-1.008,5.286,5.286,0,0,1-1.52-1.255,5.914,5.914,0,0,0-.826-1.09,4.956,4.956,0,0,0,.3.595,4.327,4.327,0,0,0,.694.942,10.72,10.72,0,0,1-2.23,1.189,11.3,11.3,0,0,1-5.4,1.057,12.107,12.107,0,0,1-5.418-1.652,6.128,6.128,0,0,1-1.421-1.156h0a7.63,7.63,0,0,1-1.222-1.652,8.258,8.258,0,0,0,.76,1.47,12.8,12.8,0,0,1-2.032.776,7.483,7.483,0,0,1-3.816.215,5.467,5.467,0,0,1-4.146-5.12,6.012,6.012,0,0,1,3.3-5.632,6.607,6.607,0,0,1,3.849-.413l.529.116v.76a4.344,4.344,0,0,0,.116.809A6.145,6.145,0,0,0,16.342,105a6.425,6.425,0,0,1,.264-2.957,3.1,3.1,0,0,1,.2-.5,4.444,4.444,0,0,1,.314-.71,8.853,8.853,0,0,1,4.1-3.551A8.259,8.259,0,0,1,26.8,96.38a7,7,0,0,1,1.008.281,3.155,3.155,0,0,0,.429,2.362,3.931,3.931,0,0,1,.281-3.122,4.955,4.955,0,0,1,1.173-1.553,3.3,3.3,0,0,1,.38-.3h0l.3-.149h0a7.135,7.135,0,0,1,1.767-.512,4.328,4.328,0,0,1,1.3-.116h.38a2.742,2.742,0,0,0-.975-.165,10.541,10.541,0,0,0-1.437.116,5.37,5.37,0,0,0-1.222.33,5.649,5.649,0,0,1-.644-2.428,6.475,6.475,0,0,1,.479-3.072,7.813,7.813,0,0,1,1.817-2.445,6.954,6.954,0,0,1,5.566-1.8,5.533,5.533,0,0,1,4.344,2.725,7.366,7.366,0,0,0-1.52.677,4.1,4.1,0,0,0-.859.743A6.1,6.1,0,0,1,43.6,86.635a6.921,6.921,0,0,1,4.427,1.3,9.3,9.3,0,0,1,3.419,4.2,6.607,6.607,0,0,1,.347,1.652,7.235,7.235,0,0,1,.116,1.652,3.734,3.734,0,0,1,0,.429A7.681,7.681,0,0,0,52.02,94.5h.132a9.53,9.53,0,0,1,2.742,0,8.11,8.11,0,0,1,4.658,2.511,7.912,7.912,0,0,1,1.272,2.246,4.741,4.741,0,0,1,.083,2.99,1.335,1.335,0,0,1-.116.363h0a9.433,9.433,0,0,0-1.354.3.859.859,0,0,0-.462.264h.116a2.345,2.345,0,0,1,1.288-.281,5.172,5.172,0,0,1,.875,0h0a7.07,7.07,0,0,1,1.652.314,4.955,4.955,0,0,1,2.957,2.593A4.46,4.46,0,0,1,65.7,109.446Z" transform="translate(-8.177 -83.759)"/></svg>