<svg xmlns="http://www.w3.org/2000/svg" width="93.77" height="45.8" viewBox="0 0 93.77 45.8"><defs><style>.a{fill:#fff;}</style></defs><path class="a" d="M371.2,64.569a9.53,9.53,0,0,1-4.113,1.156c-.809.1-1.652.149-2.461.182h-1.9a13.645,13.645,0,0,0,2.346.4,2,2,0,0,1-.165.595,9.515,9.515,0,0,1-1.652,2.758,14.618,14.618,0,0,1-5.434,4.229,12.669,12.669,0,0,1-6.805,1.008,7.581,7.581,0,0,1-1.437-.347,8.257,8.257,0,0,0,.529-3.023h0a7.449,7.449,0,0,1-1.338,3.3,13.108,13.108,0,0,1-1.4,1.9,17.1,17.1,0,0,1-3.386,2.973,23.472,23.472,0,0,1-10.77,3.766,18.169,18.169,0,0,1-9.91-1.652,12.848,12.848,0,0,1-3.667-2.841,6.789,6.789,0,0,1-1.371-1.652,11.18,11.18,0,0,1-1.156-4.03,8.621,8.621,0,0,0,1.189,4.823A18.582,18.582,0,0,1,304.2,79.5a8.391,8.391,0,0,1-5.946-5.021,6.394,6.394,0,0,1-.413-2.081,4.047,4.047,0,0,1,.3-3.023,5.715,5.715,0,0,1,2.874-2.428,3.882,3.882,0,0,0-2.824,1.751,5.3,5.3,0,0,0-.595.975,8.889,8.889,0,0,1-1.421-1.189,8.375,8.375,0,0,1-2.428-2.99,15.033,15.033,0,0,1-1.008-2.577l-.2-.727a14.274,14.274,0,0,0,.958,4.46,17.69,17.69,0,0,1-6.046,0A6.409,6.409,0,0,1,282,60.323a7.9,7.9,0,0,1,7.169-7.1,17.889,17.889,0,0,1,5.55.38,3.079,3.079,0,0,1,.842.248,10.789,10.789,0,0,0-1.4,1.833c-.116.281-.231.562-.33.842a8.919,8.919,0,0,1,3.039-3.072,13.115,13.115,0,0,1,8.259-3.089,15.328,15.328,0,0,1,5.781,1.354,6.46,6.46,0,0,0,.149,2.461,6.475,6.475,0,0,1,1.024-3.981c.132-.3.281-.578.43-.842a14.387,14.387,0,0,1,6.244-5.913,11.777,11.777,0,0,1,9.052-.38,13.671,13.671,0,0,1,1.652.628h0l.281.116h0l.38.165c.529.264,1.09.512,1.652.826a6.606,6.606,0,0,0-1.569-1.288l-.248-.149c.281-.512.578-.991.875-1.454a9.1,9.1,0,0,1,5.434-3.766,10.489,10.489,0,0,1,3.436-.33,7.6,7.6,0,0,1,3.006,1.156,6.723,6.723,0,0,1,3.039,4.129,2.74,2.74,0,0,1,.248.644,6.936,6.936,0,0,1,.545,1.652.248.248,0,0,0,.116-.2,7.764,7.764,0,0,0,0-.875,14.87,14.87,0,0,1,1.652-.71,12.107,12.107,0,0,1,7.532,0,9.613,9.613,0,0,1,5.682,4.129,8.259,8.259,0,0,1,.975,2.775,6.045,6.045,0,0,0-3.2,1.982,7.714,7.714,0,0,1,5.335-1.652,16.039,16.039,0,0,1,4,.413c3.072.694,6.012,2.015,6.954,5.269S373.937,62.917,371.2,64.569Z" transform="translate(-282 -37.785)"/></svg>