<svg xmlns="http://www.w3.org/2000/svg" width="103.162" height="56.201" viewBox="0 0 103.162 56.201"><defs><style>.a{fill:#fff;}</style></defs><path class="a" d="M286.609,48.887a14.156,14.156,0,0,1-5.038,4.955,21.787,21.787,0,0,1-15.048,2.791,27.238,27.238,0,0,1-8.044-2.312,17.655,17.655,0,0,1-2.56-1.454c.231-.248.446-.512.661-.776-.281.231-.578.446-.842.644-1.074.776-2.18,1.536-3.3,2.246l-.4.248a22.221,22.221,0,0,1-2.56,1.52,22.431,22.431,0,0,1-4.344,1.47,23.586,23.586,0,0,1-4.79.793,15.609,15.609,0,0,1-4.03-.38,14.733,14.733,0,0,1-5.385-1.8,10.01,10.01,0,0,1-2.692-2.23,10.555,10.555,0,0,0-1.487-1.933c.165.347.33.71.529,1.057a11.2,11.2,0,0,0,1.239,1.652,24.215,24.215,0,0,1-13.544,4,22.3,22.3,0,0,1-9.646-3.023,11.959,11.959,0,0,1-2.527-2.081h0a12.6,12.6,0,0,1-2.18-2.858,13.479,13.479,0,0,0,1.4,2.676,25.108,25.108,0,0,1-3.617,1.4,13.1,13.1,0,0,1-6.772.363,9.762,9.762,0,0,1-7.4-9.1,10.769,10.769,0,0,1,5.946-10.01,11.563,11.563,0,0,1,6.888-.826,7.862,7.862,0,0,1,.941.215c0,.446-.083.908-.1,1.354a10.042,10.042,0,0,0,.182,1.437,12.737,12.737,0,0,0,.628,1.949,11.926,11.926,0,0,1,.479-5.269,8.04,8.04,0,0,1,.347-.875,10.527,10.527,0,0,1,.545-1.272c1.5-3.072,4.427-4.708,7.284-6.31a14.536,14.536,0,0,1,9.911-1.652,11.746,11.746,0,0,1,1.784.479,5.7,5.7,0,0,0,.842,4.262,7.053,7.053,0,0,1,.479-5.533,9.779,9.779,0,0,1,2.1-2.775,3.47,3.47,0,0,1,.677-.512h0l.529-.281h0a13.412,13.412,0,0,1,3.155-.925,7.747,7.747,0,0,1,2.313-.2l.512.083h.165a5.533,5.533,0,0,0-1.734-.3,19.1,19.1,0,0,0-2.56.2,10.8,10.8,0,0,0-2.164.611,9.911,9.911,0,0,1-1.156-4.328,11.215,11.215,0,0,1,.875-5.467,13.924,13.924,0,0,1,3.3-4.344,12.4,12.4,0,0,1,9.911-3.2,9.91,9.91,0,0,1,7.73,4.84,14.14,14.14,0,0,0-2.709,1.206,8.342,8.342,0,0,0-1.536,1.338,10.951,10.951,0,0,1,7.532-2.362,12.438,12.438,0,0,1,7.879,2.329,16.518,16.518,0,0,1,6.1,7.466,12.454,12.454,0,0,1,.611,2.775,13.212,13.212,0,0,1,.2,3.006v.76a17.192,17.192,0,0,0,.2-2.428h.231a16.617,16.617,0,0,1,4.873.132,14.47,14.47,0,0,1,8.259,4.46,14.14,14.14,0,0,1,2.263,4.014,8.375,8.375,0,0,1,.149,5.319l-.2.644h0a14.865,14.865,0,0,0-2.412.529,1.354,1.354,0,0,0-.826.479h0a4.526,4.526,0,0,1,2.313-.512H278.5a11.1,11.1,0,0,1,3.023.562,8.639,8.639,0,0,1,5.286,4.708,7.813,7.813,0,0,1-.2,6.359Z" transform="translate(-184.226 -3.175)"/></svg>